:SAMPLES-PER-SECOND 30
:FULLY-SPECIFIED
:DEGREES
181
root  8.98729 36.9389 -26.7588 -102.695 -85.3894 98.95
RightUpLeg  -21.186 -1.04479 -33.397
RightLeg  39.2363 -9.58637 -8.56393
RightFoot  15.6313 0.606697 -2.24272
RightToes  1.16414e-010 0 -3.6325e-017
Spine  24.3046 2.28812 9.29174
Spine1  -2.50303 4.46141 -4.66076
HEad  -14.6822 -6.30989 -16.6932
LeftShoulder1  1.71846 -4.05932 -15.9645
LeftArm  0.0317426 29.7957 -48.3439
LeftForeArm  31.9145 4.49579 -15.7077
LeftHand  0.0717059 12.8001 2.13476
RightShoulder  0.136556 -2.15093 1.89084
RightArm  -58.6518 15.697 -1.55005
RightForeArm  -173.47 9.46038 -12.7819
RightHand  11.9871 -17.4433 -89.1118
LeftUpLeg  -6.46923 14.185 10.5546
LeftLeg  36.5369 11.5617 9.45914
LeftFoot  -17.4966 -0.601826 -13.1879
LeftToes  7.09373e-011 9.9627e-011 8.96859e-012
182
root  8.64097 36.8652 -29.2404 -122.289 -87.515 119.6
RightUpLeg  -15.9373 3.42432 -31.2584
RightLeg  31.3087 -3.88912 -2.71978
RightFoot  14.4544 -1.76756 8.59284
RightToes  1.16414e-010 0 -3.6325e-017
Spine  22.1202 3.07167 8.60088
Spine1  -3.01905 4.74213 -3.59888
HEad  -13.6494 -3.47474 -15.6767
LeftShoulder1  1.75336 -4.33395 -15.5867
LeftArm  0.115804 30.5268 -47.2008
LeftForeArm  31.7976 4.78047 -15.6775
LeftHand  0.0845536 12.6837 2.35318
RightShoulder  0.180213 -1.8632 2.94005
RightArm  -58.9287 14.6483 -0.903383
RightForeArm  -173.029 8.73562 -12.9492
RightHand  9.65012 -14.8214 -90.7544
LeftUpLeg  -5.4387 13.5158 17.1763
LeftLeg  32.9262 12.0253 8.62867
LeftFoot  -13.3495 -0.180155 -15.0959
LeftToes  7.09373e-011 9.9627e-011 8.96859e-012
183
root  8.30822 36.6712 -31.8129 -138.79 -89.3806 137.964
RightUpLeg  -12.452 2.79069 -27.843
RightLeg  27.1972 0.128901 -0.122142
RightFoot  5.1949 -3.35691 23.3388
RightToes  1.16414e-010 0 -3.6325e-017
Spine  18.9406 3.19589 6.3337
Spine1  -3.16796 3.94932 -0.962938
HEad  -13.2424 -0.647504 -14.3556
LeftShoulder1  1.70083 -4.38285 -14.6942
LeftArm  0.557159 31.3393 -45.7231
LeftForeArm  31.1333 4.83429 -15.7047
LeftHand  0.0790154 12.7434 2.25659
RightShoulder  0.196325 -1.82722 3.77925
RightArm  -60.2681 14.3986 0.673496
RightForeArm  -172.018 8.79045 -12.9773
RightHand  7.57504 -12.5982 -92.2748
LeftUpLeg  -5.62476 9.81844 22.2736
LeftLeg  29.0106 15.1178 9.21412
LeftFoot  -8.5584 0.399747 -15.0638
LeftToes  7.09373e-011 9.9627e-011 8.96859e-012
184
root  8.12381 36.5534 -34.2525 39.8263 -88.7747 -39.7161
RightUpLeg  -10.6349 -1.72245 -23.4744
RightLeg  26.7697 2.78409 1.32149
RightFoot  -5.92444 -1.57491 29.6844
RightToes  1.16414e-010 0 -3.6325e-017
Spine  17.1018 2.4661 4.40311
Spine1  -2.51942 2.6273 1.39297
HEad  -13.9651 1.78483 -13.0602
LeftShoulder1  1.43948 -3.60948 -13.2183
LeftArm  1.10201 31.1578 -44.4527
LeftForeArm  30.6765 4.65864 -15.7439
LeftHand  0.0752911 12.905 2.16478
RightShoulder  0.179255 -2.01992 4.20407
RightArm  -65.5866 12.9054 3.82432
RightForeArm  -169.796 13.3413 -11.8008
RightHand  5.42352 -10.3624 -94.2076
LeftUpLeg  -5.37783 3.02267 25.8986
LeftLeg  24.4243 19.8654 9.87949
LeftFoot  -3.25459 0.741484 -10.378
LeftToes  7.09373e-011 9.9627e-011 8.96859e-012
185
root  8.12027 36.5888 -36.3593 63.3196 -87.418 -63.7497
RightUpLeg  -10.6736 -4.5963 -18.3505
RightLeg  29.4441 2.76985 1.43784
RightFoot  -12.1988 0.112053 25.1696
RightToes  1.16414e-010 0 -3.6325e-017
Spine  17.3008 1.73396 4.62176
Spine1  -0.933107 1.99271 1.83173
HEad  -16.0899 3.50703 -12.0031
LeftShoulder1  1.13469 -2.43225 -12.0109
LeftArm  2.15087 29.6573 -43.3139
LeftForeArm  30.7856 3.98641 -15.8131
LeftHand  0.101963 12.674 2.62967
RightShoulder  0.155442 -2.22375 4.2997
RightArm  -68.1547 11.7152 5.80511
RightForeArm  -170.156 15.0559 -10.5289
RightHand  3.98348 -8.92266 -95.7103
LeftUpLeg  -3.88524 -1.86404 28.6203
LeftLeg  19.9857 21.6292 8.93969
LeftFoot  0.149243 0.604775 -5.83665
LeftToes  7.09373e-011 9.9627e-011 8.96859e-012
